<svg width="116" height="80" viewBox="0 0 116 80" fill="none" xmlns="http://www.w3.org/2000/svg">
<g clip-path="url(#clip0_45:124)">
<path d="M21.2019 40.1967V15.7348H25.8484V16.877H22.3267V40.1967H21.2019Z" fill="#111111"/>
<path d="M21.2019 64.5417V40.0797H22.3267V63.3995H25.8484V64.5417H21.2019Z" fill="#111111"/>
<path d="M28.2028 22.2694C28.2028 21.221 28.5105 20.2137 29.1258 19.2474C29.7412 18.2811 30.5174 17.5153 31.4542 16.9501C32.3911 16.3849 33.328 16.0978 34.2648 16.0887C35.0915 16.0887 35.7482 16.3211 36.235 16.786C36.3177 16.8772 36.3865 16.9547 36.4417 17.0185C36.4968 17.0823 36.5335 17.1279 36.5519 17.1552L36.5657 17.1963C36.5932 17.1963 36.7172 17.0778 36.9376 16.8407C37.0019 16.786 37.0708 16.7222 37.1443 16.6493C37.2178 16.5764 37.2913 16.5034 37.3647 16.4305C37.4382 16.3576 37.4842 16.3074 37.5025 16.2801L37.7092 16.075H37.7918C37.9204 16.075 37.9847 16.1069 37.9847 16.1707C37.9847 16.2072 37.8378 16.8316 37.5439 18.0441C37.2132 19.3112 37.0479 19.9493 37.0479 19.9585C37.0295 20.004 37.0065 20.0314 36.979 20.0405C36.9514 20.0496 36.8688 20.0587 36.731 20.0678H36.5105C36.4554 20.0131 36.4279 19.9721 36.4279 19.9448C36.4279 19.9357 36.4325 19.9038 36.4417 19.8491C36.4508 19.7944 36.46 19.7032 36.4692 19.5756C36.4784 19.4479 36.483 19.3021 36.483 19.138C36.483 18.4908 36.336 17.9256 36.0421 17.4424C35.7482 16.9592 35.2476 16.7131 34.5404 16.704C34.375 16.704 34.1959 16.7177 34.0031 16.745C33.8102 16.7724 33.5668 16.8316 33.2729 16.9228C32.9789 17.0139 32.6988 17.1416 32.4324 17.3057C32.1661 17.4698 31.8767 17.6885 31.5645 17.962C31.2522 18.2355 30.9858 18.5591 30.7654 18.9329C30.5449 19.3066 30.3291 19.7716 30.1178 20.3277C29.9066 20.8837 29.7642 21.4945 29.6907 22.16C29.6724 22.3241 29.6632 22.5018 29.6632 22.6933C29.6632 23.1309 29.7275 23.5183 29.856 23.8556C29.9846 24.1929 30.15 24.4527 30.352 24.635C30.5541 24.8173 30.7837 24.9723 31.0409 25.0999C31.2981 25.2276 31.5369 25.3051 31.7573 25.3324C31.9778 25.3598 32.1844 25.378 32.3773 25.3871C32.8733 25.3871 33.328 25.2823 33.7413 25.0726C34.1546 24.8629 34.4393 24.594 34.5955 24.2658C34.623 24.1929 34.6919 23.9422 34.8021 23.5137C34.9124 23.0853 34.9675 22.8437 34.9675 22.789C34.9675 22.7161 34.9078 22.6705 34.7884 22.6523C34.669 22.634 34.3934 22.6204 33.9617 22.6112H33.452C33.3968 22.5565 33.3693 22.5201 33.3693 22.5018C33.3693 22.4836 33.3785 22.397 33.3968 22.242C33.4336 22.1235 33.4795 22.0369 33.5346 21.9822H33.7688C34.1362 22.0005 34.7792 22.0096 35.6977 22.0096C36.0651 22.0096 36.3636 22.0096 36.5932 22.0096C36.8228 22.0096 36.9882 22.005 37.0892 21.9959C37.1902 21.9868 37.2453 21.9868 37.2545 21.9959C37.3831 21.9959 37.4474 22.0369 37.4474 22.119C37.4474 22.1372 37.4382 22.201 37.4199 22.3104C37.3739 22.4836 37.328 22.5793 37.2821 22.5976C37.2545 22.6067 37.1856 22.6112 37.0754 22.6112C36.8917 22.6112 36.7034 22.6249 36.5105 22.6523C36.4463 22.6796 36.4003 22.7206 36.3728 22.7753C36.3452 22.83 36.2809 23.0625 36.1799 23.4727C36.0972 23.7735 36.0283 24.0288 35.9732 24.2385C35.7436 25.1683 35.615 25.6469 35.5875 25.6743C35.5691 25.6925 35.5461 25.7016 35.5186 25.7016C35.4267 25.7016 35.2981 25.6104 35.1328 25.4281C34.9675 25.2458 34.8618 25.1045 34.8159 25.0042C34.8159 24.9951 34.8067 24.9951 34.7884 25.0042C34.77 25.0133 34.7424 25.0361 34.7057 25.0726C34.026 25.7016 33.1075 26.0161 31.9502 26.0161C30.8388 26.0161 29.9387 25.6651 29.2498 24.9632C28.561 24.2613 28.2119 23.3633 28.2028 22.2694Z" fill="#111111"/>
<path d="M58.6568 22.8027C58.4731 22.8027 58.3813 22.7434 58.3813 22.6249C58.3813 22.5885 58.4042 22.4791 58.4502 22.2968C58.4961 22.1144 58.519 21.9549 58.519 21.8182C58.519 21.5356 58.4226 21.3624 58.2297 21.2985C58.0368 21.2347 57.5914 21.2028 56.8933 21.2028H56.1769C56.1677 21.2211 56.007 21.8501 55.6947 23.0899C55.3824 24.3297 55.2262 24.9678 55.2262 25.0042C55.2262 25.0407 55.2768 25.0589 55.3778 25.0589C55.4788 25.0589 55.8462 25.0681 56.48 25.0863C57.3434 25.0863 57.9128 25.0772 58.1884 25.0589C58.4639 25.0407 58.7395 24.9815 59.015 24.8812C59.4651 24.7353 59.8371 24.4801 60.131 24.1154C60.4249 23.7508 60.751 23.1537 61.1092 22.3241C61.201 22.1236 61.2607 22.0142 61.2883 21.9959C61.3526 21.9777 61.4215 21.9686 61.495 21.9686C61.6787 21.9686 61.7705 22.0278 61.7705 22.1463C60.8061 24.4618 60.3009 25.6424 60.255 25.688C60.2274 25.7062 58.914 25.7153 56.3146 25.7153H53.7107C52.7739 25.7153 52.3054 25.6652 52.3054 25.5649C52.3054 25.5467 52.3192 25.4828 52.3468 25.3734C52.3835 25.2276 52.4202 25.1455 52.457 25.1273C52.4937 25.1091 52.5993 25.0954 52.7739 25.0863C53.0218 25.0863 53.2974 25.0726 53.6005 25.0453C53.7291 25.0179 53.8163 24.9632 53.8623 24.8812C53.8806 24.8356 54.2067 23.5548 54.8405 21.0387C55.4742 18.5227 55.7957 17.2464 55.8049 17.21C55.8049 17.1462 55.7865 17.1142 55.7498 17.1142C55.6763 17.0869 55.4329 17.0641 55.0196 17.0459H54.5925C54.5374 16.9912 54.5098 16.9547 54.5098 16.9365C54.5098 16.9182 54.519 16.8408 54.5374 16.704C54.5741 16.549 54.62 16.4533 54.6751 16.4169H62.3078C62.3721 16.4533 62.4043 16.5035 62.4043 16.5673C62.4043 16.6129 62.3446 17.1234 62.2252 18.0988C62.1058 19.0742 62.0415 19.5756 62.0323 19.6029C62.0139 19.6668 61.9221 19.6987 61.7567 19.6987H61.5914C61.5271 19.6531 61.495 19.5938 61.495 19.5209L61.5363 19.2064C61.5638 18.9876 61.5776 18.7506 61.5776 18.4953C61.5776 18.2219 61.5455 17.9939 61.4812 17.8116C61.4169 17.6293 61.3296 17.488 61.2194 17.3877C61.1092 17.2875 60.9485 17.2145 60.7372 17.1689C60.5259 17.1234 60.3101 17.0915 60.0897 17.0732C59.8692 17.055 59.5753 17.0459 59.2079 17.0459H58.5604C57.7521 17.055 57.325 17.0687 57.2791 17.0869C57.2423 17.1051 57.2148 17.1462 57.1964 17.21C57.1872 17.2373 57.0449 17.798 56.7693 18.8919C56.4938 19.9858 56.3514 20.5419 56.3422 20.5601C56.5535 20.5693 56.7739 20.5738 57.0035 20.5738H57.3617C57.9679 20.5738 58.3859 20.5054 58.6155 20.3687C58.8451 20.232 59.0518 19.8628 59.2355 19.2611C59.2722 19.1152 59.2998 19.0332 59.3181 19.015C59.3365 18.9967 59.4146 18.983 59.5523 18.9739C59.5983 18.9739 59.635 18.9739 59.6626 18.9739C59.6901 18.9739 59.7131 18.9785 59.7315 18.9876C59.7498 18.9967 59.759 19.0013 59.759 19.0013C59.759 19.0013 59.7682 19.0195 59.7866 19.056C59.8049 19.0924 59.8187 19.1107 59.8279 19.1107L59.3732 20.9157C59.0701 22.1281 58.9048 22.7434 58.8773 22.7617C58.8497 22.789 58.7762 22.8027 58.6568 22.8027Z" fill="#111111"/>
<path d="M87.4113 19.767C87.4113 20.8154 87.1174 21.8273 86.5295 22.8027C85.9417 23.7781 85.1839 24.5575 84.2562 25.141C83.3286 25.7244 82.3779 26.0161 81.4043 26.0161C80.5134 26.0161 79.751 25.7563 79.1173 25.2367C78.4835 24.7171 78.084 23.9604 77.9186 22.9668C77.9094 22.8938 77.9048 22.6978 77.9048 22.3788C77.9048 21.4489 78.1253 20.5647 78.5662 19.726C79.007 18.8873 79.5995 18.1443 80.3435 17.4971C81.4824 16.5581 82.6259 16.0887 83.774 16.0887C84.1231 16.0887 84.3435 16.0932 84.4353 16.1023C85.3263 16.23 86.0427 16.622 86.5846 17.2783C87.1265 17.9347 87.4021 18.7642 87.4113 19.767ZM85.9922 19.2064C85.9922 18.395 85.7809 17.7615 85.3584 17.3057C84.9359 16.8499 84.4078 16.622 83.774 16.622C83.0392 16.622 82.332 16.8954 81.6523 17.4424C80.9175 18.0167 80.3572 18.8235 79.9715 19.8627C79.5857 20.902 79.3882 21.8683 79.379 22.7617C79.379 23.5821 79.5765 24.2339 79.9715 24.7171C80.3664 25.2002 80.89 25.4464 81.5421 25.4555C82.3687 25.4555 83.154 25.0954 83.898 24.3752C84.642 23.655 85.2069 22.6751 85.5926 21.4353C85.859 20.5692 85.9922 19.8263 85.9922 19.2064Z" fill="#111111"/>
<path d="M31.3785 34.7088C31.0662 34.7088 30.9009 34.6906 30.8825 34.6541C30.8733 34.6359 30.8687 34.5994 30.8687 34.5447C30.8687 34.3259 30.9192 34.1755 31.0203 34.0935C31.0386 34.0844 31.1075 34.0798 31.2269 34.0798C31.7229 34.1072 32.3062 34.1208 32.9767 34.1208C34.2717 34.1208 35.0157 34.1072 35.2086 34.0798H35.3739C35.429 34.1345 35.4566 34.1755 35.4566 34.2029C35.4566 34.2302 35.4474 34.3123 35.429 34.449C35.3831 34.5857 35.3418 34.6724 35.305 34.7088H34.7815C34.1477 34.7179 33.7757 34.759 33.6655 34.8319C33.6012 34.8683 33.5369 34.996 33.4726 35.2148C33.4083 35.4335 33.1007 36.6369 32.5496 38.8247C32.4026 39.4173 32.2465 40.0463 32.0811 40.7118C31.9158 41.3773 31.7918 41.8786 31.7091 42.2159L31.5851 42.7082C31.5851 42.7447 31.6265 42.7629 31.7091 42.7629C31.7918 42.7629 32.0628 42.772 32.522 42.7903H32.7562C33.0501 42.7903 33.2844 42.7857 33.4589 42.7766C33.6334 42.7675 33.8584 42.7356 34.134 42.6809C34.4095 42.6262 34.6391 42.5441 34.8228 42.4347C35.0065 42.3253 35.2086 42.1704 35.429 41.9698C35.6495 41.7693 35.8424 41.5186 36.0077 41.2177C36.1546 40.9442 36.2924 40.6389 36.421 40.3016C36.5496 39.9643 36.6277 39.7728 36.6552 39.7272C36.7012 39.6999 36.7792 39.6862 36.8894 39.6862H37.0686C37.1237 39.7683 37.1512 39.8184 37.1512 39.8366C37.1512 39.8549 37.0594 40.1238 36.8757 40.6434C36.692 41.163 36.4899 41.71 36.2695 42.2843C36.049 42.8586 35.9296 43.1959 35.9112 43.2962C35.8929 43.3418 35.8745 43.3691 35.8561 43.3782C35.8378 43.3874 35.7643 43.401 35.6357 43.4193C35.5071 43.4375 35.3096 43.4421 35.0433 43.4329C34.9422 43.4329 34.5932 43.4329 33.9962 43.4329C33.3992 43.4329 32.8297 43.4284 32.2878 43.4193H29.8354C29.0639 43.4193 28.6781 43.3737 28.6781 43.2825C28.6781 43.2187 28.6873 43.1549 28.7057 43.0911C28.7516 42.9179 28.7975 42.8222 28.8434 42.8039C28.8802 42.7948 28.9491 42.7903 29.0501 42.7903H29.1328C29.3807 42.7903 29.6563 42.7766 29.9594 42.7492C30.088 42.7219 30.1752 42.6672 30.2212 42.5851C30.2487 42.5487 30.5794 41.2815 31.2131 38.7837C31.8469 36.2859 32.1638 34.9686 32.1638 34.8319C32.1638 34.7681 31.902 34.727 31.3785 34.7088Z" fill="#111111"/>
<path d="M54.4694 43.4055C54.3132 43.4055 54.2352 43.3645 54.2352 43.2824C54.2352 43.2642 54.2489 43.2004 54.2765 43.091C54.3224 42.9178 54.3684 42.8221 54.4143 42.8039C54.4418 42.7947 54.5107 42.7902 54.6209 42.7902H54.7036C55.2547 42.7902 55.6037 42.7583 55.7507 42.6945C55.7599 42.6945 55.7691 42.6899 55.7782 42.6808C55.8242 42.6626 55.8747 42.5577 55.9298 42.3663C55.9849 42.1748 56.2099 41.2815 56.6049 39.6861C56.7151 39.2759 56.7978 38.9523 56.8529 38.7153C57.4958 36.1628 57.8173 34.8774 57.8173 34.8592C57.7989 34.8227 57.7897 34.7999 57.7897 34.7908C57.6979 34.7361 57.3718 34.7087 56.8115 34.7087H56.536C56.4533 34.654 56.435 34.5401 56.4809 34.3669C56.5176 34.2301 56.5452 34.1481 56.5636 34.1207C56.5819 34.0934 56.6462 34.0797 56.7564 34.0797H56.8115C57.4729 34.098 58.1434 34.1071 58.8231 34.1071C59.9436 34.1071 60.5315 34.098 60.5866 34.0797H60.7243C60.7886 34.1435 60.8208 34.1937 60.8208 34.2301C60.8208 34.2666 60.807 34.3441 60.7794 34.4626C60.7519 34.5811 60.7197 34.654 60.683 34.6814C60.6555 34.6996 60.5498 34.7087 60.3661 34.7087C60.0814 34.7087 59.7875 34.7224 59.4844 34.7498C59.3558 34.7771 59.2685 34.8272 59.2226 34.9002C59.1583 35.0278 58.9241 35.8984 58.52 37.5119C58.4189 37.9404 58.3179 38.3552 58.2168 38.7563C57.5739 41.2723 57.2524 42.5577 57.2524 42.6124C57.2524 42.6762 57.2984 42.7172 57.3902 42.7355C57.4821 42.7537 57.7209 42.7719 58.1066 42.7902H58.5475C58.6026 42.8631 58.6302 42.9041 58.6302 42.9132C58.6302 42.9224 58.6164 43.0044 58.5888 43.1594C58.5521 43.2779 58.5062 43.3645 58.4511 43.4192H58.2306C57.8908 43.401 57.2616 43.3918 56.3431 43.3918C56.0125 43.3918 55.7094 43.3918 55.4338 43.3918C55.1583 43.3918 54.9378 43.3918 54.7725 43.3918C54.6072 43.3918 54.5061 43.3964 54.4694 43.4055Z" fill="#111111"/>
<path d="M79.5788 34.7087C79.5512 34.7087 79.5145 34.7087 79.4686 34.7087C79.239 34.7087 79.1012 34.7042 79.0553 34.6951C79.0093 34.6859 78.9864 34.6358 78.9864 34.5446C78.9864 34.2985 79.0369 34.1481 79.1379 34.0934C79.1563 34.0843 79.6018 34.0797 80.4743 34.0797C81.1816 34.0797 81.5857 34.0797 81.6867 34.0797C81.7878 34.0797 81.8521 34.1071 81.8796 34.1618C83.8177 38.6834 84.805 41.0034 84.8418 41.1219L85.5858 38.2093C86.0726 36.2858 86.316 35.2603 86.316 35.1326C86.316 34.8865 86.022 34.7452 85.4342 34.7087C85.2138 34.7087 85.1035 34.6586 85.1035 34.5583C85.1035 34.5401 85.1127 34.4854 85.1311 34.3942C85.1678 34.2484 85.1954 34.1618 85.2138 34.1344C85.2321 34.1071 85.2781 34.0888 85.3515 34.0797C85.3791 34.0797 85.5215 34.0843 85.7786 34.0934C86.0358 34.1025 86.417 34.1116 86.9222 34.1207C87.3814 34.1207 87.7304 34.1162 87.9692 34.1071C88.2081 34.098 88.3458 34.0934 88.3826 34.0934C88.5203 34.0934 88.5892 34.139 88.5892 34.2301C88.5892 34.4307 88.5525 34.5674 88.479 34.6404C88.4606 34.6859 88.3596 34.7087 88.1759 34.7087C87.5238 34.7452 87.115 34.9275 86.9497 35.2557L84.8969 43.3235C84.8785 43.3873 84.7821 43.4192 84.6076 43.4192C84.479 43.4192 84.4009 43.4101 84.3733 43.3918C84.3458 43.3645 83.7534 41.9834 82.5961 39.2486L80.8463 35.16L79.9508 38.7153C79.3538 41.049 79.0553 42.2569 79.0553 42.3389C79.1012 42.6398 79.4318 42.7902 80.0472 42.7902H80.185C80.2401 42.8358 80.2677 42.8722 80.2677 42.8996C80.2677 42.9269 80.2585 43.0135 80.2401 43.1594C80.2034 43.2779 80.1574 43.3645 80.1023 43.4192H79.9232C79.6385 43.401 79.1425 43.3918 78.4353 43.3918C78.1781 43.3918 77.9439 43.3918 77.7326 43.3918C77.5214 43.3918 77.3514 43.3918 77.2229 43.3918C77.0943 43.3918 77.0162 43.3964 76.9886 43.4055C76.8509 43.4055 76.782 43.3645 76.782 43.2824C76.782 43.246 76.7958 43.1731 76.8233 43.0637C76.8509 42.9543 76.8738 42.8905 76.8922 42.8722C76.9106 42.8175 77.0162 42.7902 77.2091 42.7902C77.8337 42.7628 78.2378 42.5851 78.4215 42.2569C78.4582 42.2022 78.7843 40.9396 79.3997 38.4691L80.3366 34.7498C80.3182 34.7406 80.0656 34.727 79.5788 34.7087Z" fill="#111111"/>
<path d="M32.088 60.3027C32.088 60.084 32.1661 59.8925 32.3222 59.7284C32.4784 59.5643 32.6758 59.4823 32.9147 59.4823C33.1351 59.4823 33.328 59.5552 33.4933 59.7011C33.6586 59.8469 33.7459 60.0429 33.7551 60.2891C33.7551 60.517 33.677 60.713 33.5209 60.8771C33.3647 61.0412 33.1672 61.1232 32.9284 61.1232C32.6896 61.1232 32.4922 61.0457 32.336 60.8907C32.1799 60.7358 32.0972 60.5398 32.088 60.3027Z" fill="#111111"/>
<path d="M55.2892 52.4126C55.0412 52.4126 54.8943 52.4081 54.8483 52.399C54.8024 52.3898 54.7795 52.3397 54.7795 52.2485C54.7795 52.0024 54.83 51.852 54.931 51.7973C54.9494 51.7882 55.7485 51.7836 57.3283 51.7836C58.9081 51.7927 59.7623 51.8064 59.8909 51.8246C60.4052 51.8976 60.8369 52.0252 61.186 52.2075C61.535 52.3898 61.783 52.5995 61.9299 52.8365C62.0769 53.0736 62.1733 53.2696 62.2193 53.4245C62.2652 53.5795 62.2927 53.7345 62.3019 53.8894C62.3019 54.2997 62.1687 54.6826 61.9024 55.0381C61.636 55.3936 61.3283 55.6671 60.9793 55.8585C60.6303 56.05 60.3226 56.2049 60.0562 56.3235C59.7898 56.442 59.6153 56.5012 59.5327 56.5012L59.6291 56.5696C60.2445 56.916 60.5522 57.4174 60.5522 58.0737C60.5522 58.174 60.5292 58.4521 60.4833 58.9079C60.4374 59.3637 60.4144 59.7374 60.4144 60.0292V60.1522C60.4144 60.3163 60.419 60.4439 60.4282 60.5351C60.4374 60.6263 60.4879 60.7083 60.5798 60.7812C60.6716 60.8542 60.791 60.8952 60.938 60.9043C61.1951 60.9043 61.4064 60.804 61.5717 60.6035C61.7371 60.4029 61.8565 60.1887 61.9299 59.9608C61.9759 59.8332 62.0126 59.7557 62.0402 59.7283C62.0677 59.701 62.1366 59.6873 62.2468 59.6873C62.4305 59.6873 62.5224 59.742 62.5224 59.8514C62.5224 60.0155 62.4121 60.2753 62.1917 60.6308C61.8427 61.1504 61.4294 61.4102 60.9517 61.4102H60.8277C60.2675 61.4102 59.8036 61.2963 59.4362 61.0684C59.0688 60.8405 58.8668 60.485 58.83 60.0018C58.83 59.7557 58.8989 59.3728 59.0367 58.8532C59.1745 58.3336 59.2433 58.0008 59.2433 57.855C59.2433 57.39 59.0459 57.0527 58.6509 56.8431C58.5131 56.7793 58.3983 56.7428 58.3065 56.7337C58.2146 56.7246 57.8886 56.7154 57.3283 56.7063H56.3776L55.9368 58.484C55.6337 59.6873 55.4821 60.2981 55.4821 60.3163C55.4821 60.3528 55.4867 60.3756 55.4959 60.3847C55.5051 60.3938 55.5372 60.412 55.5923 60.4394C55.6474 60.4667 55.7255 60.4758 55.8265 60.4667C55.9276 60.4576 56.0791 60.4667 56.2812 60.4941H56.7083C56.7634 60.567 56.791 60.608 56.791 60.6171C56.791 60.6263 56.7772 60.7083 56.7496 60.8633C56.7129 60.9818 56.667 61.0684 56.6119 61.1231H56.4052C56.0745 61.1049 55.4729 61.0957 54.6004 61.0957C54.2881 61.0957 53.9987 61.0957 53.7324 61.0957C53.466 61.0957 53.2548 61.0957 53.0986 61.0957C52.9425 61.0957 52.846 61.1003 52.8093 61.1094C52.6531 61.1094 52.5751 61.0684 52.5751 60.9863C52.5751 60.9681 52.5889 60.9043 52.6164 60.7949C52.6623 60.6217 52.7083 60.526 52.7542 60.5078C52.7909 60.4986 52.8598 60.4941 52.9608 60.4941H53.0435C53.2915 60.4941 53.567 60.4804 53.8702 60.4531C53.9987 60.4257 54.086 60.371 54.1319 60.289C54.1595 60.2525 54.4901 58.9854 55.1239 56.4875C55.7577 53.9897 56.0745 52.6724 56.0745 52.5357C56.0745 52.4719 55.8128 52.4309 55.2892 52.4126ZM60.8002 53.5476C60.8002 53.2559 60.7037 53.0097 60.5109 52.8092C60.318 52.6086 59.923 52.481 59.326 52.4263C59.3076 52.4263 59.202 52.4263 59.0091 52.4263C58.8162 52.4263 58.6417 52.4218 58.4856 52.4126H58.1825C57.7508 52.4126 57.5028 52.4582 57.4385 52.5494C57.4293 52.5767 57.2732 53.183 56.9701 54.368C56.667 55.5531 56.5154 56.1594 56.5154 56.1867C56.5154 56.1958 56.8323 56.2004 57.4661 56.2004C58.1825 56.1913 58.6601 56.1594 58.8989 56.1047C59.4867 56.0135 59.946 55.7446 60.2766 55.2979C60.4236 55.0882 60.5476 54.8147 60.6486 54.4774C60.7497 54.1401 60.8002 53.8302 60.8002 53.5476Z" fill="#111111"/>
<path d="M78.6626 52.4127C78.3503 52.4127 78.185 52.3945 78.1666 52.358C78.1574 52.3398 78.1528 52.3033 78.1528 52.2486C78.1528 52.0299 78.2034 51.8794 78.3044 51.7974C78.3228 51.7883 78.4008 51.7837 78.5386 51.7837C78.9152 51.8019 79.5398 51.8111 80.4123 51.8111C80.7246 51.8111 81.014 51.8111 81.2803 51.8111C81.5467 51.8111 81.7534 51.8065 81.9003 51.7974C82.0473 51.7883 82.1391 51.7883 82.1759 51.7974C82.3228 51.7974 82.3963 51.843 82.3963 51.9341C82.3963 51.9524 82.3871 52.0162 82.3687 52.1256C82.3228 52.2805 82.2769 52.3717 82.231 52.3991H82.2034C82.185 52.3991 82.1621 52.3991 82.1345 52.3991C82.107 52.3991 82.0748 52.3991 82.0381 52.3991C82.0013 52.3991 81.96 52.4036 81.9141 52.4127C81.8682 52.4218 81.8268 52.4218 81.7901 52.4127C81.4319 52.4218 81.2023 52.4355 81.1012 52.4537C81.0002 52.472 80.9175 52.5221 80.8532 52.6042C80.844 52.6224 80.7155 53.101 80.4675 54.04C80.2195 54.9789 79.9715 55.9635 79.7235 56.9936C79.4755 58.0237 79.3377 58.6299 79.3102 58.8122C79.2918 58.9399 79.2826 59.0721 79.2826 59.2088C79.2826 59.7011 79.425 60.0885 79.7097 60.3711C79.9944 60.6537 80.3894 60.795 80.8946 60.795C81.5099 60.795 82.1253 60.5899 82.7407 60.1797C83.3561 59.7694 83.8062 59.1495 84.0909 58.32L84.7936 55.5715C85.2253 53.8212 85.4411 52.9096 85.4411 52.8366C85.4411 52.5905 85.1472 52.4492 84.5594 52.4127C84.3389 52.4127 84.2287 52.3626 84.2287 52.2623C84.2287 52.2441 84.2379 52.1894 84.2562 52.0982C84.293 51.9524 84.3205 51.8658 84.3389 51.8384C84.3573 51.8111 84.4032 51.7928 84.4767 51.7837C84.5042 51.7837 84.6512 51.7883 84.9176 51.7974C85.1839 51.8065 85.5697 51.8156 86.0749 51.8247C86.5433 51.8247 86.9015 51.8202 87.1495 51.8111C87.3975 51.8019 87.5307 51.7974 87.5491 51.7974C87.6868 51.7974 87.7557 51.843 87.7557 51.9341C87.7557 52.1347 87.719 52.2714 87.6455 52.3444C87.6179 52.3899 87.5169 52.4127 87.3424 52.4127C86.6903 52.4492 86.2815 52.6315 86.1162 52.9597C86.0978 53.0053 85.8682 53.885 85.4273 55.5988C85.0507 57.1394 84.8211 58.0465 84.7385 58.32C84.4354 59.2316 83.9072 59.9745 83.1541 60.5489C82.4009 61.1232 81.6202 61.4149 80.8119 61.424C79.9669 61.424 79.2918 61.1688 78.7866 60.6583C78.2814 60.1478 78.0243 59.5415 78.0151 58.8396V58.6208C78.0151 58.4567 78.2677 57.3719 78.7728 55.3663C79.2229 53.534 79.4479 52.5905 79.4479 52.5358C79.4479 52.472 79.1862 52.431 78.6626 52.4127Z" fill="#111111"/>
<path d="M90.0221 16.877V15.7348H94.6686V40.1967H93.5438V16.877H90.0221Z" fill="#111111"/>
<path d="M93.5438 63.3995V40.0797H94.6686V64.5417H90.0221V63.3995H93.5438Z" fill="#111111"/>
</g>
<defs>
<clipPath id="clip0_45:124">
<rect width="85.0667" height="49.0821" fill="white" transform="translate(15.4667 15.4589)"/>
</clipPath>
</defs>
</svg>
